<mxfile host="app.diagrams.net" modified="2024-05-12T15:35:08.171Z" agent="Mozilla/5.0 (Windows NT 10.0; Win64; x64) AppleWebKit/537.36 (KHTML, like Gecko) Chrome/124.0.0.0 Safari/537.36" etag="Q9aCGaNr276JWMbFPAvV" version="24.4.0" type="device">
  <diagram name="Página-1" id="qmYyR_YkVHlsotN023ji">
    <mxGraphModel dx="2328" dy="866" grid="1" gridSize="10" guides="1" tooltips="1" connect="1" arrows="1" fold="1" page="0" pageScale="1" pageWidth="827" pageHeight="1169" math="0" shadow="0">
      <root>
        <mxCell id="0" />
        <mxCell id="1" parent="0" />
        <mxCell id="Y1ywnI6Fe6qzkNMvWHq9-18" style="edgeStyle=orthogonalEdgeStyle;rounded=0;orthogonalLoop=1;jettySize=auto;html=1;entryX=1;entryY=0.5;entryDx=0;entryDy=0;shape=link;" edge="1" parent="1" source="K1kNOEO3Sa0EjUUVY54G-1" target="K1kNOEO3Sa0EjUUVY54G-17">
          <mxGeometry relative="1" as="geometry" />
        </mxCell>
        <mxCell id="Y1ywnI6Fe6qzkNMvWHq9-19" style="edgeStyle=orthogonalEdgeStyle;rounded=0;orthogonalLoop=1;jettySize=auto;html=1;entryX=1;entryY=0.5;entryDx=0;entryDy=0;endArrow=none;endFill=0;" edge="1" parent="1" source="K1kNOEO3Sa0EjUUVY54G-1" target="K1kNOEO3Sa0EjUUVY54G-4">
          <mxGeometry relative="1" as="geometry" />
        </mxCell>
        <mxCell id="Y1ywnI6Fe6qzkNMvWHq9-20" style="edgeStyle=orthogonalEdgeStyle;rounded=0;orthogonalLoop=1;jettySize=auto;html=1;entryX=0;entryY=0.5;entryDx=0;entryDy=0;endArrow=none;endFill=0;" edge="1" parent="1" source="K1kNOEO3Sa0EjUUVY54G-1" target="K1kNOEO3Sa0EjUUVY54G-6">
          <mxGeometry relative="1" as="geometry" />
        </mxCell>
        <mxCell id="K1kNOEO3Sa0EjUUVY54G-1" value="Profissional de Saúde" style="whiteSpace=wrap;html=1;align=center;fillColor=none;" parent="1" vertex="1">
          <mxGeometry x="410" y="388" width="140" height="60" as="geometry" />
        </mxCell>
        <mxCell id="K1kNOEO3Sa0EjUUVY54G-8" style="rounded=0;orthogonalLoop=1;jettySize=auto;html=1;exitX=0.5;exitY=1;exitDx=0;exitDy=0;endArrow=none;endFill=0;" parent="1" source="K1kNOEO3Sa0EjUUVY54G-2" target="K1kNOEO3Sa0EjUUVY54G-1" edge="1">
          <mxGeometry relative="1" as="geometry" />
        </mxCell>
        <mxCell id="K1kNOEO3Sa0EjUUVY54G-2" value="nome" style="ellipse;whiteSpace=wrap;html=1;align=center;fillColor=none;" parent="1" vertex="1">
          <mxGeometry x="332" y="338" width="80" height="40" as="geometry" />
        </mxCell>
        <mxCell id="K1kNOEO3Sa0EjUUVY54G-9" style="rounded=0;orthogonalLoop=1;jettySize=auto;html=1;exitX=0.5;exitY=1;exitDx=0;exitDy=0;endArrow=none;endFill=0;" parent="1" source="K1kNOEO3Sa0EjUUVY54G-3" target="K1kNOEO3Sa0EjUUVY54G-1" edge="1">
          <mxGeometry relative="1" as="geometry" />
        </mxCell>
        <mxCell id="K1kNOEO3Sa0EjUUVY54G-3" value="morada" style="ellipse;whiteSpace=wrap;html=1;align=center;fillColor=none;" parent="1" vertex="1">
          <mxGeometry x="440" y="328" width="80" height="40" as="geometry" />
        </mxCell>
        <mxCell id="K1kNOEO3Sa0EjUUVY54G-4" value="&lt;u&gt;nif&lt;/u&gt;" style="ellipse;whiteSpace=wrap;html=1;align=center;fillColor=none;" parent="1" vertex="1">
          <mxGeometry x="286" y="398" width="80" height="40" as="geometry" />
        </mxCell>
        <mxCell id="K1kNOEO3Sa0EjUUVY54G-10" style="edgeStyle=none;rounded=0;orthogonalLoop=1;jettySize=auto;html=1;exitX=0.5;exitY=1;exitDx=0;exitDy=0;strokeColor=default;align=center;verticalAlign=middle;fontFamily=Helvetica;fontSize=11;fontColor=default;labelBackgroundColor=default;endArrow=none;endFill=0;" parent="1" source="K1kNOEO3Sa0EjUUVY54G-5" target="K1kNOEO3Sa0EjUUVY54G-1" edge="1">
          <mxGeometry relative="1" as="geometry" />
        </mxCell>
        <mxCell id="K1kNOEO3Sa0EjUUVY54G-5" value="número telefone" style="ellipse;whiteSpace=wrap;html=1;align=center;fillColor=none;" parent="1" vertex="1">
          <mxGeometry x="560" y="338" width="80" height="40" as="geometry" />
        </mxCell>
        <mxCell id="K1kNOEO3Sa0EjUUVY54G-6" value="iban" style="ellipse;whiteSpace=wrap;html=1;align=center;fillColor=none;" parent="1" vertex="1">
          <mxGeometry x="590" y="398" width="80" height="40" as="geometry" />
        </mxCell>
        <mxCell id="K1kNOEO3Sa0EjUUVY54G-12" value="Médico" style="whiteSpace=wrap;html=1;align=center;fillColor=none;" parent="1" vertex="1">
          <mxGeometry x="300" y="560" width="140" height="60" as="geometry" />
        </mxCell>
        <mxCell id="K1kNOEO3Sa0EjUUVY54G-13" value="Enfermeiro" style="whiteSpace=wrap;html=1;align=center;fillColor=none;" parent="1" vertex="1">
          <mxGeometry x="520" y="560" width="140" height="60" as="geometry" />
        </mxCell>
        <mxCell id="K1kNOEO3Sa0EjUUVY54G-22" style="edgeStyle=orthogonalEdgeStyle;rounded=1;orthogonalLoop=1;jettySize=auto;html=1;exitX=0;exitY=0.5;exitDx=0;exitDy=0;entryX=0.5;entryY=0;entryDx=0;entryDy=0;strokeColor=default;align=center;verticalAlign=middle;fontFamily=Helvetica;fontSize=11;fontColor=default;labelBackgroundColor=default;endArrow=none;endFill=0;curved=0;" parent="1" source="K1kNOEO3Sa0EjUUVY54G-17" target="K1kNOEO3Sa0EjUUVY54G-13" edge="1">
          <mxGeometry relative="1" as="geometry" />
        </mxCell>
        <mxCell id="K1kNOEO3Sa0EjUUVY54G-23" style="edgeStyle=orthogonalEdgeStyle;rounded=1;orthogonalLoop=1;jettySize=auto;html=1;exitX=0;exitY=0.5;exitDx=0;exitDy=0;entryX=0.5;entryY=0;entryDx=0;entryDy=0;strokeColor=default;align=center;verticalAlign=middle;fontFamily=Helvetica;fontSize=11;fontColor=default;labelBackgroundColor=default;endArrow=none;endFill=0;curved=0;" parent="1" source="K1kNOEO3Sa0EjUUVY54G-17" target="K1kNOEO3Sa0EjUUVY54G-12" edge="1">
          <mxGeometry relative="1" as="geometry" />
        </mxCell>
        <mxCell id="K1kNOEO3Sa0EjUUVY54G-25" style="edgeStyle=none;rounded=0;orthogonalLoop=1;jettySize=auto;html=1;exitX=0.5;exitY=0;exitDx=0;exitDy=0;strokeColor=default;align=center;verticalAlign=middle;fontFamily=Helvetica;fontSize=11;fontColor=default;labelBackgroundColor=default;endArrow=none;endFill=0;" parent="1" source="K1kNOEO3Sa0EjUUVY54G-24" target="K1kNOEO3Sa0EjUUVY54G-12" edge="1">
          <mxGeometry relative="1" as="geometry" />
        </mxCell>
        <mxCell id="K1kNOEO3Sa0EjUUVY54G-24" value="especialidade" style="ellipse;whiteSpace=wrap;html=1;align=center;fillColor=none;" parent="1" vertex="1">
          <mxGeometry x="330" y="660" width="80" height="40" as="geometry" />
        </mxCell>
        <mxCell id="K1kNOEO3Sa0EjUUVY54G-56" style="edgeStyle=none;rounded=0;orthogonalLoop=1;jettySize=auto;html=1;exitX=1;exitY=0.5;exitDx=0;exitDy=0;entryX=0;entryY=0.5;entryDx=0;entryDy=0;strokeColor=default;align=center;verticalAlign=middle;fontFamily=Helvetica;fontSize=12;fontColor=default;labelBackgroundColor=default;autosize=1;resizable=0;endArrow=none;endFill=0;" parent="1" source="K1kNOEO3Sa0EjUUVY54G-26" target="K1kNOEO3Sa0EjUUVY54G-55" edge="1">
          <mxGeometry relative="1" as="geometry" />
        </mxCell>
        <mxCell id="K1kNOEO3Sa0EjUUVY54G-26" value="Clínica" style="whiteSpace=wrap;html=1;align=center;fillColor=none;" parent="1" vertex="1">
          <mxGeometry x="300" y="780" width="140" height="60" as="geometry" />
        </mxCell>
        <mxCell id="K1kNOEO3Sa0EjUUVY54G-27" value="Data" style="whiteSpace=wrap;html=1;align=center;fillColor=none;" parent="1" vertex="1">
          <mxGeometry x="-40" y="560" width="140" height="60" as="geometry" />
        </mxCell>
        <mxCell id="K1kNOEO3Sa0EjUUVY54G-30" style="edgeStyle=none;rounded=0;orthogonalLoop=1;jettySize=auto;html=1;exitX=1;exitY=0.5;exitDx=0;exitDy=0;entryX=0;entryY=0.5;entryDx=0;entryDy=0;strokeColor=default;align=center;verticalAlign=middle;fontFamily=Helvetica;fontSize=11;fontColor=default;labelBackgroundColor=default;endArrow=none;endFill=0;" parent="1" source="K1kNOEO3Sa0EjUUVY54G-29" target="K1kNOEO3Sa0EjUUVY54G-12" edge="1">
          <mxGeometry relative="1" as="geometry" />
        </mxCell>
        <mxCell id="K1kNOEO3Sa0EjUUVY54G-31" style="edgeStyle=none;rounded=0;orthogonalLoop=1;jettySize=auto;html=1;exitX=0;exitY=0.5;exitDx=0;exitDy=0;strokeColor=default;align=center;verticalAlign=middle;fontFamily=Helvetica;fontSize=11;fontColor=default;labelBackgroundColor=default;endArrow=none;endFill=0;" parent="1" source="K1kNOEO3Sa0EjUUVY54G-29" target="K1kNOEO3Sa0EjUUVY54G-27" edge="1">
          <mxGeometry relative="1" as="geometry" />
        </mxCell>
        <mxCell id="K1kNOEO3Sa0EjUUVY54G-38" style="rounded=0;orthogonalLoop=1;jettySize=auto;html=1;exitX=0.5;exitY=1;exitDx=0;exitDy=0;entryX=0;entryY=0.5;entryDx=0;entryDy=0;strokeColor=default;align=center;verticalAlign=middle;fontFamily=Helvetica;fontSize=11;fontColor=default;labelBackgroundColor=default;endArrow=none;endFill=0;edgeStyle=orthogonalEdgeStyle;" parent="1" source="K1kNOEO3Sa0EjUUVY54G-29" target="K1kNOEO3Sa0EjUUVY54G-26" edge="1">
          <mxGeometry relative="1" as="geometry" />
        </mxCell>
        <mxCell id="K1kNOEO3Sa0EjUUVY54G-29" value="" style="rhombus;whiteSpace=wrap;html=1;fontFamily=Helvetica;fontSize=11;fontColor=default;labelBackgroundColor=default;" parent="1" vertex="1">
          <mxGeometry x="175" y="565" width="50" height="50" as="geometry" />
        </mxCell>
        <mxCell id="K1kNOEO3Sa0EjUUVY54G-34" value="&amp;nbsp;" style="text;html=1;align=left;verticalAlign=middle;resizable=0;points=[];autosize=1;strokeColor=none;fillColor=none;fontFamily=Helvetica;fontSize=12;fontColor=default;" parent="1" vertex="1">
          <mxGeometry x="-370" y="1590" width="30" height="30" as="geometry" />
        </mxCell>
        <mxCell id="K1kNOEO3Sa0EjUUVY54G-42" style="edgeStyle=none;rounded=0;orthogonalLoop=1;jettySize=auto;html=1;exitX=0.5;exitY=0;exitDx=0;exitDy=0;strokeColor=default;align=center;verticalAlign=middle;fontFamily=Helvetica;fontSize=11;fontColor=default;labelBackgroundColor=default;endArrow=none;endFill=0;" parent="1" source="K1kNOEO3Sa0EjUUVY54G-39" target="K1kNOEO3Sa0EjUUVY54G-26" edge="1">
          <mxGeometry relative="1" as="geometry" />
        </mxCell>
        <mxCell id="K1kNOEO3Sa0EjUUVY54G-39" value="&lt;u&gt;nome&lt;/u&gt;" style="ellipse;whiteSpace=wrap;html=1;align=center;fillColor=none;" parent="1" vertex="1">
          <mxGeometry x="240" y="880" width="80" height="40" as="geometry" />
        </mxCell>
        <mxCell id="K1kNOEO3Sa0EjUUVY54G-43" style="edgeStyle=none;rounded=0;orthogonalLoop=1;jettySize=auto;html=1;exitX=0.5;exitY=0;exitDx=0;exitDy=0;strokeColor=default;align=center;verticalAlign=middle;fontFamily=Helvetica;fontSize=11;fontColor=default;labelBackgroundColor=default;endArrow=none;endFill=0;" parent="1" source="K1kNOEO3Sa0EjUUVY54G-40" target="K1kNOEO3Sa0EjUUVY54G-26" edge="1">
          <mxGeometry relative="1" as="geometry" />
        </mxCell>
        <mxCell id="K1kNOEO3Sa0EjUUVY54G-40" value="morada" style="ellipse;whiteSpace=wrap;html=1;align=center;fillColor=none;" parent="1" vertex="1">
          <mxGeometry x="330" y="880" width="80" height="40" as="geometry" />
        </mxCell>
        <mxCell id="K1kNOEO3Sa0EjUUVY54G-44" style="edgeStyle=none;rounded=0;orthogonalLoop=1;jettySize=auto;html=1;exitX=0.5;exitY=0;exitDx=0;exitDy=0;strokeColor=default;align=center;verticalAlign=middle;fontFamily=Helvetica;fontSize=11;fontColor=default;labelBackgroundColor=default;endArrow=none;endFill=0;" parent="1" source="K1kNOEO3Sa0EjUUVY54G-41" target="K1kNOEO3Sa0EjUUVY54G-26" edge="1">
          <mxGeometry relative="1" as="geometry" />
        </mxCell>
        <mxCell id="K1kNOEO3Sa0EjUUVY54G-41" value="número telefone" style="ellipse;whiteSpace=wrap;html=1;align=center;fillColor=none;" parent="1" vertex="1">
          <mxGeometry x="420" y="880" width="80" height="40" as="geometry" />
        </mxCell>
        <mxCell id="K1kNOEO3Sa0EjUUVY54G-45" value="&lt;font style=&quot;font-size: 12px;&quot;&gt;RI-3&lt;/font&gt;" style="text;html=1;align=center;verticalAlign=middle;resizable=0;points=[];autosize=1;strokeColor=none;fillColor=none;fontFamily=Helvetica;fontSize=11;fontColor=default;labelBackgroundColor=default;" parent="1" vertex="1">
          <mxGeometry x="380" y="690" width="50" height="30" as="geometry" />
        </mxCell>
        <mxCell id="K1kNOEO3Sa0EjUUVY54G-46" value="&lt;font style=&quot;font-size: 12px;&quot;&gt;RI-1&lt;/font&gt;" style="text;html=1;align=center;verticalAlign=middle;resizable=0;points=[];autosize=1;strokeColor=none;fillColor=none;fontFamily=Helvetica;fontSize=11;fontColor=default;labelBackgroundColor=default;" parent="1" vertex="1">
          <mxGeometry x="355" y="920" width="50" height="30" as="geometry" />
        </mxCell>
        <mxCell id="K1kNOEO3Sa0EjUUVY54G-47" value="&lt;font style=&quot;font-size: 12px;&quot;&gt;RI-2&lt;/font&gt;" style="text;html=1;align=center;verticalAlign=middle;resizable=0;points=[];autosize=1;strokeColor=none;fillColor=none;fontFamily=Helvetica;fontSize=11;fontColor=default;labelBackgroundColor=default;" parent="1" vertex="1">
          <mxGeometry x="460" y="920" width="50" height="30" as="geometry" />
        </mxCell>
        <mxCell id="K1kNOEO3Sa0EjUUVY54G-53" value="&amp;lt; trabalha" style="text;html=1;align=center;verticalAlign=middle;resizable=0;points=[];autosize=1;strokeColor=none;fillColor=none;fontFamily=Helvetica;fontSize=12;fontColor=default;" parent="1" vertex="1">
          <mxGeometry x="160" y="541" width="80" height="30" as="geometry" />
        </mxCell>
        <mxCell id="K1kNOEO3Sa0EjUUVY54G-54" value="&amp;lt; alocado a" style="text;html=1;align=center;verticalAlign=middle;resizable=0;points=[];autosize=1;strokeColor=none;fillColor=none;fontFamily=Helvetica;fontSize=12;fontColor=default;" parent="1" vertex="1">
          <mxGeometry x="545" y="830" width="90" height="30" as="geometry" />
        </mxCell>
        <mxCell id="K1kNOEO3Sa0EjUUVY54G-55" value="" style="rhombus;whiteSpace=wrap;html=1;fontFamily=Helvetica;fontSize=11;fontColor=default;labelBackgroundColor=default;" parent="1" vertex="1">
          <mxGeometry x="565" y="785" width="50" height="50" as="geometry" />
        </mxCell>
        <mxCell id="HGfq4PHyTtCPstL9mXCh-4" style="edgeStyle=orthogonalEdgeStyle;rounded=0;orthogonalLoop=1;jettySize=auto;html=1;exitX=0;exitY=0.5;exitDx=0;exitDy=0;entryX=0.5;entryY=1;entryDx=0;entryDy=0;endArrow=none;endFill=0;" parent="1" edge="1">
          <mxGeometry relative="1" as="geometry">
            <mxPoint x="588" y="773.5" as="sourcePoint" />
            <mxPoint x="588" y="620" as="targetPoint" />
          </mxGeometry>
        </mxCell>
        <mxCell id="HGfq4PHyTtCPstL9mXCh-1" value="" style="triangle;whiteSpace=wrap;html=1;rotation=90;fillColor=#000000;" parent="1" vertex="1">
          <mxGeometry x="585" y="771" width="10" height="15" as="geometry" />
        </mxCell>
        <mxCell id="HGfq4PHyTtCPstL9mXCh-5" style="edgeStyle=orthogonalEdgeStyle;rounded=0;orthogonalLoop=1;jettySize=auto;html=1;exitX=0;exitY=0.5;exitDx=0;exitDy=0;entryX=0.5;entryY=1;entryDx=0;entryDy=0;endArrow=none;endFill=0;" parent="1" edge="1">
          <mxGeometry relative="1" as="geometry">
            <mxPoint x="591.9" y="774" as="sourcePoint" />
            <mxPoint x="591.9" y="620" as="targetPoint" />
          </mxGeometry>
        </mxCell>
        <mxCell id="HGfq4PHyTtCPstL9mXCh-9" style="rounded=0;orthogonalLoop=1;jettySize=auto;html=1;exitX=0.5;exitY=0;exitDx=0;exitDy=0;endArrow=none;endFill=0;" parent="1" source="HGfq4PHyTtCPstL9mXCh-6" target="K1kNOEO3Sa0EjUUVY54G-27" edge="1">
          <mxGeometry relative="1" as="geometry" />
        </mxCell>
        <mxCell id="HGfq4PHyTtCPstL9mXCh-6" value="&lt;u&gt;dia&lt;/u&gt;" style="ellipse;whiteSpace=wrap;html=1;align=center;fillColor=none;" parent="1" vertex="1">
          <mxGeometry x="-100" y="660" width="80" height="40" as="geometry" />
        </mxCell>
        <mxCell id="HGfq4PHyTtCPstL9mXCh-10" style="edgeStyle=none;rounded=0;orthogonalLoop=1;jettySize=auto;html=1;exitX=0.5;exitY=0;exitDx=0;exitDy=0;strokeColor=default;align=center;verticalAlign=middle;fontFamily=Helvetica;fontSize=11;fontColor=default;labelBackgroundColor=default;endArrow=none;endFill=0;" parent="1" source="HGfq4PHyTtCPstL9mXCh-7" target="K1kNOEO3Sa0EjUUVY54G-27" edge="1">
          <mxGeometry relative="1" as="geometry" />
        </mxCell>
        <mxCell id="HGfq4PHyTtCPstL9mXCh-7" value="&lt;u&gt;mês&lt;/u&gt;" style="ellipse;whiteSpace=wrap;html=1;align=center;fillColor=none;" parent="1" vertex="1">
          <mxGeometry x="-10" y="660" width="80" height="40" as="geometry" />
        </mxCell>
        <mxCell id="HGfq4PHyTtCPstL9mXCh-12" style="edgeStyle=none;rounded=0;orthogonalLoop=1;jettySize=auto;html=1;exitX=0.5;exitY=0;exitDx=0;exitDy=0;strokeColor=default;align=center;verticalAlign=middle;fontFamily=Helvetica;fontSize=11;fontColor=default;labelBackgroundColor=default;endArrow=none;endFill=0;" parent="1" source="HGfq4PHyTtCPstL9mXCh-8" target="K1kNOEO3Sa0EjUUVY54G-27" edge="1">
          <mxGeometry relative="1" as="geometry" />
        </mxCell>
        <mxCell id="HGfq4PHyTtCPstL9mXCh-8" value="&lt;u&gt;ano&lt;/u&gt;" style="ellipse;whiteSpace=wrap;html=1;align=center;fillColor=none;" parent="1" vertex="1">
          <mxGeometry x="80" y="660" width="80" height="40" as="geometry" />
        </mxCell>
        <mxCell id="HGfq4PHyTtCPstL9mXCh-14" value="&lt;font style=&quot;font-size: 12px;&quot;&gt;RI-4&lt;/font&gt;" style="text;html=1;align=center;verticalAlign=middle;resizable=0;points=[];autosize=1;strokeColor=none;fillColor=none;fontFamily=Helvetica;fontSize=11;fontColor=default;labelBackgroundColor=default;" parent="1" vertex="1">
          <mxGeometry x="205" y="598" width="50" height="30" as="geometry" />
        </mxCell>
        <mxCell id="HGfq4PHyTtCPstL9mXCh-18" value="" style="endArrow=none;dashed=1;html=1;rounded=0;strokeColor=default;align=center;verticalAlign=middle;fontFamily=Helvetica;fontSize=11;fontColor=default;labelBackgroundColor=default;" parent="1" edge="1">
          <mxGeometry width="50" height="50" relative="1" as="geometry">
            <mxPoint x="510" y="960" as="sourcePoint" />
            <mxPoint x="510" y="540" as="targetPoint" />
          </mxGeometry>
        </mxCell>
        <mxCell id="HGfq4PHyTtCPstL9mXCh-19" value="" style="endArrow=none;dashed=1;html=1;rounded=0;strokeColor=default;align=center;verticalAlign=middle;fontFamily=Helvetica;fontSize=11;fontColor=default;labelBackgroundColor=default;" parent="1" edge="1">
          <mxGeometry width="50" height="50" relative="1" as="geometry">
            <mxPoint x="-110" y="545" as="sourcePoint" />
            <mxPoint x="505" y="545" as="targetPoint" />
          </mxGeometry>
        </mxCell>
        <mxCell id="HGfq4PHyTtCPstL9mXCh-20" value="" style="endArrow=none;dashed=1;html=1;rounded=0;strokeColor=default;align=center;verticalAlign=middle;fontFamily=Helvetica;fontSize=11;fontColor=default;labelBackgroundColor=default;" parent="1" edge="1">
          <mxGeometry width="50" height="50" relative="1" as="geometry">
            <mxPoint x="-110" y="545" as="sourcePoint" />
            <mxPoint x="-110" y="710" as="targetPoint" />
          </mxGeometry>
        </mxCell>
        <mxCell id="HGfq4PHyTtCPstL9mXCh-21" value="" style="endArrow=none;dashed=1;html=1;rounded=0;strokeColor=default;align=center;verticalAlign=middle;fontFamily=Helvetica;fontSize=11;fontColor=default;labelBackgroundColor=default;" parent="1" edge="1">
          <mxGeometry width="50" height="50" relative="1" as="geometry">
            <mxPoint x="180" y="710" as="sourcePoint" />
            <mxPoint x="-110" y="710" as="targetPoint" />
          </mxGeometry>
        </mxCell>
        <mxCell id="HGfq4PHyTtCPstL9mXCh-22" value="" style="endArrow=none;dashed=1;html=1;rounded=0;strokeColor=default;align=center;verticalAlign=middle;fontFamily=Helvetica;fontSize=11;fontColor=default;labelBackgroundColor=default;" parent="1" edge="1">
          <mxGeometry width="50" height="50" relative="1" as="geometry">
            <mxPoint x="180" y="955" as="sourcePoint" />
            <mxPoint x="180" y="710" as="targetPoint" />
          </mxGeometry>
        </mxCell>
        <mxCell id="HGfq4PHyTtCPstL9mXCh-23" value="" style="endArrow=none;dashed=1;html=1;rounded=0;strokeColor=default;align=center;verticalAlign=middle;fontFamily=Helvetica;fontSize=11;fontColor=default;labelBackgroundColor=default;" parent="1" edge="1">
          <mxGeometry width="50" height="50" relative="1" as="geometry">
            <mxPoint x="180" y="955" as="sourcePoint" />
            <mxPoint x="505" y="955" as="targetPoint" />
          </mxGeometry>
        </mxCell>
        <mxCell id="HGfq4PHyTtCPstL9mXCh-24" value="" style="endArrow=none;dashed=1;html=1;rounded=0;strokeColor=default;align=center;verticalAlign=middle;fontFamily=Helvetica;fontSize=11;fontColor=default;labelBackgroundColor=default;" parent="1" edge="1">
          <mxGeometry width="50" height="50" relative="1" as="geometry">
            <mxPoint x="505" y="955" as="sourcePoint" />
            <mxPoint x="505.17" y="545" as="targetPoint" />
          </mxGeometry>
        </mxCell>
        <mxCell id="HGfq4PHyTtCPstL9mXCh-28" style="edgeStyle=none;rounded=0;orthogonalLoop=1;jettySize=auto;html=1;exitX=1;exitY=0.5;exitDx=0;exitDy=0;entryX=0;entryY=0.5;entryDx=0;entryDy=0;strokeColor=default;align=center;verticalAlign=middle;fontFamily=Helvetica;fontSize=11;fontColor=default;labelBackgroundColor=default;endArrow=none;endFill=0;" parent="1" source="HGfq4PHyTtCPstL9mXCh-26" target="HGfq4PHyTtCPstL9mXCh-27" edge="1">
          <mxGeometry relative="1" as="geometry" />
        </mxCell>
        <mxCell id="HGfq4PHyTtCPstL9mXCh-26" value="Paciente" style="whiteSpace=wrap;html=1;align=center;fillColor=none;" parent="1" vertex="1">
          <mxGeometry x="-230" y="780" width="140" height="60" as="geometry" />
        </mxCell>
        <mxCell id="HGfq4PHyTtCPstL9mXCh-29" style="edgeStyle=none;rounded=0;orthogonalLoop=1;jettySize=auto;html=1;exitX=1;exitY=0.5;exitDx=0;exitDy=0;strokeColor=default;align=center;verticalAlign=middle;fontFamily=Helvetica;fontSize=11;fontColor=default;labelBackgroundColor=default;endArrow=none;endFill=0;" parent="1" source="HGfq4PHyTtCPstL9mXCh-27" edge="1">
          <mxGeometry relative="1" as="geometry">
            <mxPoint x="180" y="810" as="targetPoint" />
          </mxGeometry>
        </mxCell>
        <mxCell id="TZJUESgAyDypiGmFBmOp-3" style="rounded=0;orthogonalLoop=1;jettySize=auto;html=1;exitX=0.5;exitY=1;exitDx=0;exitDy=0;endArrow=none;endFill=0;" parent="1" source="HGfq4PHyTtCPstL9mXCh-27" target="TZJUESgAyDypiGmFBmOp-2" edge="1">
          <mxGeometry relative="1" as="geometry" />
        </mxCell>
        <mxCell id="HGfq4PHyTtCPstL9mXCh-27" value="" style="rhombus;whiteSpace=wrap;html=1;fontFamily=Helvetica;fontSize=11;fontColor=default;labelBackgroundColor=default;" parent="1" vertex="1">
          <mxGeometry x="15" y="785" width="50" height="50" as="geometry" />
        </mxCell>
        <mxCell id="HGfq4PHyTtCPstL9mXCh-30" value="&lt;font style=&quot;font-size: 12px;&quot;&gt;consulta &amp;gt;&lt;/font&gt;" style="text;html=1;align=center;verticalAlign=middle;resizable=0;points=[];autosize=1;strokeColor=none;fillColor=none;fontFamily=Helvetica;fontSize=11;fontColor=default;labelBackgroundColor=default;" parent="1" vertex="1">
          <mxGeometry y="756" width="80" height="30" as="geometry" />
        </mxCell>
        <mxCell id="HGfq4PHyTtCPstL9mXCh-38" style="edgeStyle=none;rounded=0;orthogonalLoop=1;jettySize=auto;html=1;exitX=1;exitY=0.5;exitDx=0;exitDy=0;strokeColor=default;align=center;verticalAlign=middle;fontFamily=Helvetica;fontSize=11;fontColor=default;labelBackgroundColor=default;autosize=1;resizable=0;endArrow=none;endFill=0;" parent="1" source="HGfq4PHyTtCPstL9mXCh-31" target="HGfq4PHyTtCPstL9mXCh-26" edge="1">
          <mxGeometry relative="1" as="geometry" />
        </mxCell>
        <mxCell id="HGfq4PHyTtCPstL9mXCh-31" value="nome" style="ellipse;whiteSpace=wrap;html=1;align=center;fillColor=none;" parent="1" vertex="1">
          <mxGeometry x="-350" y="713.5" width="80" height="40" as="geometry" />
        </mxCell>
        <mxCell id="HGfq4PHyTtCPstL9mXCh-39" style="edgeStyle=none;rounded=0;orthogonalLoop=1;jettySize=auto;html=1;exitX=1;exitY=0.5;exitDx=0;exitDy=0;strokeColor=default;align=center;verticalAlign=middle;fontFamily=Helvetica;fontSize=11;fontColor=default;labelBackgroundColor=default;autosize=1;resizable=0;endArrow=none;endFill=0;" parent="1" source="HGfq4PHyTtCPstL9mXCh-32" target="HGfq4PHyTtCPstL9mXCh-26" edge="1">
          <mxGeometry relative="1" as="geometry" />
        </mxCell>
        <mxCell id="HGfq4PHyTtCPstL9mXCh-32" value="nif" style="ellipse;whiteSpace=wrap;html=1;align=center;fillColor=none;" parent="1" vertex="1">
          <mxGeometry x="-350" y="765" width="80" height="40" as="geometry" />
        </mxCell>
        <mxCell id="HGfq4PHyTtCPstL9mXCh-40" style="edgeStyle=none;rounded=0;orthogonalLoop=1;jettySize=auto;html=1;exitX=1;exitY=0.5;exitDx=0;exitDy=0;strokeColor=default;align=center;verticalAlign=middle;fontFamily=Helvetica;fontSize=11;fontColor=default;labelBackgroundColor=default;autosize=1;resizable=0;endArrow=none;endFill=0;" parent="1" source="HGfq4PHyTtCPstL9mXCh-33" target="HGfq4PHyTtCPstL9mXCh-26" edge="1">
          <mxGeometry relative="1" as="geometry" />
        </mxCell>
        <mxCell id="HGfq4PHyTtCPstL9mXCh-33" value="data nascimento" style="ellipse;whiteSpace=wrap;html=1;align=center;fillColor=none;" parent="1" vertex="1">
          <mxGeometry x="-350" y="815" width="80" height="40" as="geometry" />
        </mxCell>
        <mxCell id="HGfq4PHyTtCPstL9mXCh-41" style="edgeStyle=none;rounded=0;orthogonalLoop=1;jettySize=auto;html=1;exitX=1;exitY=0.5;exitDx=0;exitDy=0;strokeColor=default;align=center;verticalAlign=middle;fontFamily=Helvetica;fontSize=11;fontColor=default;labelBackgroundColor=default;autosize=1;resizable=0;endArrow=none;endFill=0;" parent="1" source="HGfq4PHyTtCPstL9mXCh-34" target="HGfq4PHyTtCPstL9mXCh-26" edge="1">
          <mxGeometry relative="1" as="geometry" />
        </mxCell>
        <mxCell id="HGfq4PHyTtCPstL9mXCh-34" value="morada" style="ellipse;whiteSpace=wrap;html=1;align=center;fillColor=none;" parent="1" vertex="1">
          <mxGeometry x="-350" y="865" width="80" height="40" as="geometry" />
        </mxCell>
        <mxCell id="HGfq4PHyTtCPstL9mXCh-42" style="edgeStyle=none;rounded=0;orthogonalLoop=1;jettySize=auto;html=1;exitX=1;exitY=0.5;exitDx=0;exitDy=0;strokeColor=default;align=center;verticalAlign=middle;fontFamily=Helvetica;fontSize=11;fontColor=default;labelBackgroundColor=default;autosize=1;resizable=0;endArrow=none;endFill=0;" parent="1" source="HGfq4PHyTtCPstL9mXCh-35" target="HGfq4PHyTtCPstL9mXCh-26" edge="1">
          <mxGeometry relative="1" as="geometry" />
        </mxCell>
        <mxCell id="HGfq4PHyTtCPstL9mXCh-35" value="telefone" style="ellipse;whiteSpace=wrap;html=1;align=center;fillColor=none;" parent="1" vertex="1">
          <mxGeometry x="-350" y="915" width="80" height="40" as="geometry" />
        </mxCell>
        <mxCell id="HGfq4PHyTtCPstL9mXCh-44" style="edgeStyle=none;rounded=0;orthogonalLoop=1;jettySize=auto;html=1;exitX=1;exitY=0.5;exitDx=0;exitDy=0;strokeColor=default;align=center;verticalAlign=middle;fontFamily=Helvetica;fontSize=11;fontColor=default;labelBackgroundColor=default;autosize=1;resizable=0;endArrow=none;endFill=0;" parent="1" source="HGfq4PHyTtCPstL9mXCh-36" target="HGfq4PHyTtCPstL9mXCh-26" edge="1">
          <mxGeometry relative="1" as="geometry" />
        </mxCell>
        <mxCell id="HGfq4PHyTtCPstL9mXCh-36" value="&lt;u&gt;número sns&lt;/u&gt;" style="ellipse;whiteSpace=wrap;html=1;align=center;fillColor=none;" parent="1" vertex="1">
          <mxGeometry x="-350" y="665" width="80" height="40" as="geometry" />
        </mxCell>
        <mxCell id="HGfq4PHyTtCPstL9mXCh-45" value="" style="endArrow=none;dashed=1;html=1;rounded=0;strokeColor=default;align=center;verticalAlign=middle;fontFamily=Helvetica;fontSize=11;fontColor=default;labelBackgroundColor=default;" parent="1" edge="1">
          <mxGeometry width="50" height="50" relative="1" as="geometry">
            <mxPoint x="-360" y="540" as="sourcePoint" />
            <mxPoint x="510" y="540" as="targetPoint" />
          </mxGeometry>
        </mxCell>
        <mxCell id="HGfq4PHyTtCPstL9mXCh-46" value="" style="endArrow=none;dashed=1;html=1;rounded=0;strokeColor=default;align=center;verticalAlign=middle;fontFamily=Helvetica;fontSize=11;fontColor=default;labelBackgroundColor=default;" parent="1" edge="1">
          <mxGeometry width="50" height="50" relative="1" as="geometry">
            <mxPoint x="-360" y="540" as="sourcePoint" />
            <mxPoint x="-360" y="960" as="targetPoint" />
          </mxGeometry>
        </mxCell>
        <mxCell id="HGfq4PHyTtCPstL9mXCh-47" value="" style="endArrow=none;dashed=1;html=1;rounded=0;strokeColor=default;align=center;verticalAlign=middle;fontFamily=Helvetica;fontSize=11;fontColor=default;labelBackgroundColor=default;" parent="1" edge="1">
          <mxGeometry width="50" height="50" relative="1" as="geometry">
            <mxPoint x="510" y="960" as="sourcePoint" />
            <mxPoint x="-360" y="960" as="targetPoint" />
          </mxGeometry>
        </mxCell>
        <mxCell id="HGfq4PHyTtCPstL9mXCh-48" value="Sistema de Saúde" style="whiteSpace=wrap;html=1;align=center;fillColor=none;" parent="1" vertex="1">
          <mxGeometry x="1" y="465" width="140" height="60" as="geometry" />
        </mxCell>
        <mxCell id="HGfq4PHyTtCPstL9mXCh-50" style="edgeStyle=none;rounded=0;orthogonalLoop=1;jettySize=auto;html=1;exitX=0.5;exitY=1;exitDx=0;exitDy=0;strokeColor=default;align=center;verticalAlign=middle;fontFamily=Helvetica;fontSize=11;fontColor=default;labelBackgroundColor=default;autosize=1;resizable=0;endArrow=none;endFill=0;" parent="1" source="TZJUESgAyDypiGmFBmOp-1" target="HGfq4PHyTtCPstL9mXCh-48" edge="1">
          <mxGeometry relative="1" as="geometry">
            <mxPoint x="30" y="320" as="sourcePoint" />
          </mxGeometry>
        </mxCell>
        <mxCell id="HGfq4PHyTtCPstL9mXCh-55" style="edgeStyle=none;rounded=0;orthogonalLoop=1;jettySize=auto;html=1;strokeColor=default;align=center;verticalAlign=middle;fontFamily=Helvetica;fontSize=11;fontColor=default;labelBackgroundColor=default;autosize=1;resizable=0;endArrow=none;endFill=0;exitX=0.057;exitY=0.367;exitDx=0;exitDy=0;exitPerimeter=0;" parent="1" edge="1">
          <mxGeometry relative="1" as="geometry">
            <mxPoint x="-43.569999999999936" y="496.995" as="sourcePoint" />
            <mxPoint x="1" y="497" as="targetPoint" />
          </mxGeometry>
        </mxCell>
        <mxCell id="HGfq4PHyTtCPstL9mXCh-66" value="" style="whiteSpace=wrap;html=1;align=center;fillColor=none;" parent="1" vertex="1">
          <mxGeometry x="6" y="471" width="130" height="50" as="geometry" />
        </mxCell>
        <mxCell id="HGfq4PHyTtCPstL9mXCh-67" style="edgeStyle=none;rounded=0;orthogonalLoop=1;jettySize=auto;html=1;strokeColor=default;align=center;verticalAlign=middle;fontFamily=Helvetica;fontSize=11;fontColor=default;labelBackgroundColor=default;autosize=1;resizable=0;endArrow=none;endFill=0;exitX=-0.026;exitY=0.644;exitDx=0;exitDy=0;exitPerimeter=0;" parent="1" source="HGfq4PHyTtCPstL9mXCh-68" edge="1">
          <mxGeometry relative="1" as="geometry">
            <mxPoint x="-39" y="493" as="sourcePoint" />
            <mxPoint x="1" y="492.9" as="targetPoint" />
          </mxGeometry>
        </mxCell>
        <mxCell id="HGfq4PHyTtCPstL9mXCh-68" value="" style="triangle;whiteSpace=wrap;html=1;rotation=-180;fillColor=#000000;" parent="1" vertex="1">
          <mxGeometry x="-53" y="487.5" width="10" height="15" as="geometry" />
        </mxCell>
        <mxCell id="TZJUESgAyDypiGmFBmOp-1" value="&lt;span style=&quot;border-bottom: 1px dotted&quot;&gt;nome&lt;/span&gt;" style="ellipse;whiteSpace=wrap;html=1;align=center;fillColor=none;" parent="1" vertex="1">
          <mxGeometry x="30" y="380" width="80" height="40" as="geometry" />
        </mxCell>
        <mxCell id="TZJUESgAyDypiGmFBmOp-2" value="período" style="ellipse;whiteSpace=wrap;html=1;align=center;fillColor=none;" parent="1" vertex="1">
          <mxGeometry y="855" width="80" height="40" as="geometry" />
        </mxCell>
        <mxCell id="TZJUESgAyDypiGmFBmOp-83" style="edgeStyle=none;rounded=0;orthogonalLoop=1;jettySize=auto;html=1;exitX=0.514;exitY=1.001;exitDx=0;exitDy=0;strokeColor=default;align=center;verticalAlign=middle;fontFamily=Helvetica;fontSize=11;fontColor=default;labelBackgroundColor=default;autosize=1;resizable=0;endArrow=none;endFill=0;exitPerimeter=0;entryX=0.539;entryY=0.036;entryDx=0;entryDy=0;entryPerimeter=0;" parent="1" source="TZJUESgAyDypiGmFBmOp-7" target="TZJUESgAyDypiGmFBmOp-84" edge="1">
          <mxGeometry relative="1" as="geometry">
            <mxPoint x="-188.0000000000001" y="1188" as="sourcePoint" />
            <mxPoint x="-188" y="1160" as="targetPoint" />
            <Array as="points" />
          </mxGeometry>
        </mxCell>
        <mxCell id="TZJUESgAyDypiGmFBmOp-7" value="Receita Médica" style="whiteSpace=wrap;html=1;align=center;fillColor=none;" parent="1" vertex="1">
          <mxGeometry x="-260" y="1000" width="140" height="60" as="geometry" />
        </mxCell>
        <mxCell id="Y1ywnI6Fe6qzkNMvWHq9-22" style="edgeStyle=orthogonalEdgeStyle;rounded=0;orthogonalLoop=1;jettySize=auto;html=1;strokeColor=default;align=center;verticalAlign=middle;fontFamily=Helvetica;fontSize=11;fontColor=default;labelBackgroundColor=default;endArrow=none;endFill=0;" edge="1" parent="1" source="TZJUESgAyDypiGmFBmOp-55">
          <mxGeometry relative="1" as="geometry">
            <mxPoint x="145" y="960" as="targetPoint" />
          </mxGeometry>
        </mxCell>
        <mxCell id="Y1ywnI6Fe6qzkNMvWHq9-76" style="edgeStyle=orthogonalEdgeStyle;rounded=0;orthogonalLoop=1;jettySize=auto;html=1;entryX=0.5;entryY=0;entryDx=0;entryDy=0;strokeColor=default;align=center;verticalAlign=middle;fontFamily=Helvetica;fontSize=11;fontColor=default;labelBackgroundColor=default;endArrow=none;endFill=0;" edge="1" parent="1" source="TZJUESgAyDypiGmFBmOp-55" target="Y1ywnI6Fe6qzkNMvWHq9-24">
          <mxGeometry relative="1" as="geometry">
            <Array as="points">
              <mxPoint x="145" y="1057" />
              <mxPoint x="200" y="1057" />
            </Array>
          </mxGeometry>
        </mxCell>
        <mxCell id="TZJUESgAyDypiGmFBmOp-55" value="" style="rhombus;whiteSpace=wrap;html=1;fontFamily=Helvetica;fontSize=11;fontColor=default;labelBackgroundColor=default;" parent="1" vertex="1">
          <mxGeometry x="120" y="987.5" width="50" height="50" as="geometry" />
        </mxCell>
        <mxCell id="TZJUESgAyDypiGmFBmOp-56" value="&lt;font style=&quot;font-size: 12px;&quot;&gt;regista&lt;/font&gt;&lt;div&gt;&lt;font style=&quot;font-size: 12px;&quot;&gt;v&lt;/font&gt;&lt;/div&gt;" style="text;html=1;align=center;verticalAlign=middle;resizable=0;points=[];autosize=1;strokeColor=none;fillColor=none;fontFamily=Helvetica;fontSize=11;fontColor=default;labelBackgroundColor=default;" parent="1" vertex="1">
          <mxGeometry x="165" y="992.5" width="60" height="40" as="geometry" />
        </mxCell>
        <mxCell id="TZJUESgAyDypiGmFBmOp-67" value="" style="endArrow=none;html=1;rounded=0;strokeColor=default;align=center;verticalAlign=middle;fontFamily=Helvetica;fontSize=11;fontColor=default;labelBackgroundColor=default;autosize=1;resizable=0;exitX=0.626;exitY=0.492;exitDx=0;exitDy=0;exitPerimeter=0;" parent="1" source="TZJUESgAyDypiGmFBmOp-75" edge="1">
          <mxGeometry width="50" height="50" relative="1" as="geometry">
            <mxPoint x="-20" y="1060" as="sourcePoint" />
            <mxPoint x="40" y="960" as="targetPoint" />
            <Array as="points">
              <mxPoint x="40" y="1030" />
            </Array>
          </mxGeometry>
        </mxCell>
        <mxCell id="TZJUESgAyDypiGmFBmOp-70" style="edgeStyle=none;rounded=0;orthogonalLoop=1;jettySize=auto;html=1;strokeColor=default;align=center;verticalAlign=middle;fontFamily=Helvetica;fontSize=11;fontColor=default;labelBackgroundColor=default;autosize=1;resizable=0;endArrow=none;endFill=0;" parent="1" edge="1">
          <mxGeometry relative="1" as="geometry">
            <mxPoint x="-70" y="1028" as="sourcePoint" />
            <mxPoint x="-120" y="1028" as="targetPoint" />
          </mxGeometry>
        </mxCell>
        <mxCell id="TZJUESgAyDypiGmFBmOp-68" value="" style="rhombus;whiteSpace=wrap;html=1;fontFamily=Helvetica;fontSize=11;fontColor=default;labelBackgroundColor=default;" parent="1" vertex="1">
          <mxGeometry x="-65" y="1005" width="50" height="50" as="geometry" />
        </mxCell>
        <mxCell id="TZJUESgAyDypiGmFBmOp-69" value="&lt;font style=&quot;font-size: 12px;&quot;&gt;&amp;lt; preescreve&lt;/font&gt;" style="text;html=1;align=center;verticalAlign=middle;resizable=0;points=[];autosize=1;strokeColor=none;fillColor=none;fontFamily=Helvetica;fontSize=11;fontColor=default;labelBackgroundColor=default;" parent="1" vertex="1">
          <mxGeometry x="-85" y="979" width="90" height="30" as="geometry" />
        </mxCell>
        <mxCell id="TZJUESgAyDypiGmFBmOp-75" value="" style="triangle;whiteSpace=wrap;html=1;rotation=-180;fillColor=#000000;" parent="1" vertex="1">
          <mxGeometry x="-14" y="1022.5" width="10" height="15" as="geometry" />
        </mxCell>
        <mxCell id="TZJUESgAyDypiGmFBmOp-77" style="edgeStyle=none;rounded=0;orthogonalLoop=1;jettySize=auto;html=1;exitX=1;exitY=0.5;exitDx=0;exitDy=0;strokeColor=default;align=center;verticalAlign=middle;fontFamily=Helvetica;fontSize=11;fontColor=default;labelBackgroundColor=default;autosize=1;resizable=0;endArrow=none;endFill=0;" parent="1" source="TZJUESgAyDypiGmFBmOp-76" target="TZJUESgAyDypiGmFBmOp-7" edge="1">
          <mxGeometry relative="1" as="geometry" />
        </mxCell>
        <mxCell id="TZJUESgAyDypiGmFBmOp-76" value="&lt;u&gt;código sns&lt;/u&gt;" style="ellipse;whiteSpace=wrap;html=1;align=center;fillColor=none;" parent="1" vertex="1">
          <mxGeometry x="-380" y="1010" width="80" height="40" as="geometry" />
        </mxCell>
        <mxCell id="TZJUESgAyDypiGmFBmOp-78" value="" style="triangle;whiteSpace=wrap;html=1;rotation=0;fillColor=#000000;" parent="1" vertex="1">
          <mxGeometry x="-76" y="1022.5" width="10" height="15" as="geometry" />
        </mxCell>
        <mxCell id="TZJUESgAyDypiGmFBmOp-80" style="edgeStyle=none;rounded=0;orthogonalLoop=1;jettySize=auto;html=1;strokeColor=default;align=center;verticalAlign=middle;fontFamily=Helvetica;fontSize=11;fontColor=default;labelBackgroundColor=default;autosize=1;resizable=0;endArrow=none;endFill=0;" parent="1" edge="1">
          <mxGeometry relative="1" as="geometry">
            <mxPoint x="-70" y="1032" as="sourcePoint" />
            <mxPoint x="-120" y="1031.92" as="targetPoint" />
          </mxGeometry>
        </mxCell>
        <mxCell id="TZJUESgAyDypiGmFBmOp-82" value="Medicamento" style="whiteSpace=wrap;html=1;align=center;fillColor=none;" parent="1" vertex="1">
          <mxGeometry x="-260" y="1180" width="140" height="60" as="geometry" />
        </mxCell>
        <mxCell id="TZJUESgAyDypiGmFBmOp-88" style="edgeStyle=none;rounded=0;orthogonalLoop=1;jettySize=auto;html=1;strokeColor=default;align=center;verticalAlign=middle;fontFamily=Helvetica;fontSize=11;fontColor=default;labelBackgroundColor=default;autosize=1;resizable=0;endArrow=none;endFill=0;" parent="1" source="TZJUESgAyDypiGmFBmOp-84" target="TZJUESgAyDypiGmFBmOp-82" edge="1">
          <mxGeometry relative="1" as="geometry" />
        </mxCell>
        <mxCell id="ul2iTMBRDx3NAluoAOQL-2" style="edgeStyle=orthogonalEdgeStyle;rounded=0;orthogonalLoop=1;jettySize=auto;html=1;exitX=1;exitY=0.5;exitDx=0;exitDy=0;endArrow=none;endFill=0;" parent="1" source="TZJUESgAyDypiGmFBmOp-84" target="ul2iTMBRDx3NAluoAOQL-1" edge="1">
          <mxGeometry relative="1" as="geometry" />
        </mxCell>
        <mxCell id="TZJUESgAyDypiGmFBmOp-84" value="" style="rhombus;whiteSpace=wrap;html=1;fontFamily=Helvetica;fontSize=11;fontColor=default;labelBackgroundColor=default;" parent="1" vertex="1">
          <mxGeometry x="-215" y="1095" width="50" height="50" as="geometry" />
        </mxCell>
        <mxCell id="TZJUESgAyDypiGmFBmOp-85" value="&lt;span style=&quot;font-size: 12px;&quot;&gt;&amp;lt; contém&lt;/span&gt;" style="text;html=1;align=center;verticalAlign=middle;resizable=0;points=[];autosize=1;strokeColor=none;fillColor=none;fontFamily=Helvetica;fontSize=11;fontColor=default;labelBackgroundColor=default;rotation=-90;" parent="1" vertex="1">
          <mxGeometry x="-260" y="1110" width="70" height="30" as="geometry" />
        </mxCell>
        <mxCell id="TZJUESgAyDypiGmFBmOp-86" value="&lt;font style=&quot;font-size: 12px;&quot;&gt;RI-5&lt;/font&gt;" style="text;html=1;align=center;verticalAlign=middle;resizable=0;points=[];autosize=1;strokeColor=none;fillColor=none;fontFamily=Helvetica;fontSize=11;fontColor=default;labelBackgroundColor=default;" parent="1" vertex="1">
          <mxGeometry x="45" y="815" width="50" height="30" as="geometry" />
        </mxCell>
        <mxCell id="TZJUESgAyDypiGmFBmOp-87" style="edgeStyle=none;rounded=0;orthogonalLoop=1;jettySize=auto;html=1;exitX=0.486;exitY=0.999;exitDx=0;exitDy=0;strokeColor=default;align=center;verticalAlign=middle;fontFamily=Helvetica;fontSize=11;fontColor=default;labelBackgroundColor=default;autosize=1;resizable=0;endArrow=none;endFill=0;exitPerimeter=0;entryX=0.461;entryY=0.04;entryDx=0;entryDy=0;entryPerimeter=0;" parent="1" source="TZJUESgAyDypiGmFBmOp-7" target="TZJUESgAyDypiGmFBmOp-84" edge="1">
          <mxGeometry relative="1" as="geometry">
            <mxPoint x="-192" y="1192" as="sourcePoint" />
            <mxPoint x="-192" y="1100" as="targetPoint" />
            <Array as="points" />
          </mxGeometry>
        </mxCell>
        <mxCell id="TZJUESgAyDypiGmFBmOp-91" style="edgeStyle=none;rounded=0;orthogonalLoop=1;jettySize=auto;html=1;strokeColor=default;align=center;verticalAlign=middle;fontFamily=Helvetica;fontSize=11;fontColor=default;labelBackgroundColor=default;autosize=1;resizable=0;endArrow=none;endFill=0;" parent="1" source="TZJUESgAyDypiGmFBmOp-90" target="TZJUESgAyDypiGmFBmOp-82" edge="1">
          <mxGeometry relative="1" as="geometry" />
        </mxCell>
        <mxCell id="TZJUESgAyDypiGmFBmOp-90" value="&lt;u&gt;nome&lt;/u&gt;" style="ellipse;whiteSpace=wrap;html=1;align=center;fillColor=none;" parent="1" vertex="1">
          <mxGeometry x="-230" y="1280" width="80" height="40" as="geometry" />
        </mxCell>
        <mxCell id="TZJUESgAyDypiGmFBmOp-94" value="&lt;font style=&quot;font-size: 12px;&quot;&gt;RI-7&lt;/font&gt;" style="text;html=1;align=center;verticalAlign=middle;resizable=0;points=[];autosize=1;strokeColor=none;fillColor=none;fontFamily=Helvetica;fontSize=11;fontColor=default;labelBackgroundColor=default;" parent="1" vertex="1">
          <mxGeometry x="-170" y="1310" width="50" height="30" as="geometry" />
        </mxCell>
        <mxCell id="YXqQFtjoeO_vSm_M-YWi-17" style="edgeStyle=none;rounded=0;orthogonalLoop=1;jettySize=auto;html=1;strokeColor=default;align=center;verticalAlign=middle;fontFamily=Helvetica;fontSize=11;fontColor=default;labelBackgroundColor=default;autosize=1;resizable=0;endArrow=none;endFill=0;exitX=0.82;exitY=0.007;exitDx=0;exitDy=0;exitPerimeter=0;entryX=0.023;entryY=0.842;entryDx=0;entryDy=0;entryPerimeter=0;" parent="1" edge="1">
          <mxGeometry relative="1" as="geometry">
            <mxPoint x="466.49999999999994" y="1270" as="sourcePoint" />
            <mxPoint x="466.8300000000001" y="1164.3500000000001" as="targetPoint" />
            <Array as="points" />
          </mxGeometry>
        </mxCell>
        <mxCell id="YXqQFtjoeO_vSm_M-YWi-18" value="" style="triangle;whiteSpace=wrap;html=1;rotation=0;fillColor=#000000;direction=north;" parent="1" vertex="1">
          <mxGeometry x="457.5" y="1155" width="15" height="10" as="geometry" />
        </mxCell>
        <mxCell id="ul2iTMBRDx3NAluoAOQL-1" value="quantidade" style="ellipse;whiteSpace=wrap;html=1;align=center;fillColor=none;" parent="1" vertex="1">
          <mxGeometry x="-124" y="1100" width="80" height="40" as="geometry" />
        </mxCell>
        <mxCell id="Y1ywnI6Fe6qzkNMvWHq9-10" value="" style="group" vertex="1" connectable="0" parent="1">
          <mxGeometry x="-104" y="441" width="50" height="79" as="geometry" />
        </mxCell>
        <mxCell id="HGfq4PHyTtCPstL9mXCh-52" value="" style="rhombus;whiteSpace=wrap;html=1;fontFamily=Helvetica;fontSize=11;fontColor=default;labelBackgroundColor=default;" parent="Y1ywnI6Fe6qzkNMvWHq9-10" vertex="1">
          <mxGeometry y="29" width="50" height="50" as="geometry" />
        </mxCell>
        <mxCell id="HGfq4PHyTtCPstL9mXCh-53" value="&lt;font style=&quot;font-size: 12px;&quot;&gt;tem &amp;gt;&lt;/font&gt;" style="text;html=1;align=center;verticalAlign=middle;resizable=0;points=[];autosize=1;strokeColor=none;fillColor=none;fontFamily=Helvetica;fontSize=11;fontColor=default;labelBackgroundColor=default;" parent="Y1ywnI6Fe6qzkNMvWHq9-10" vertex="1">
          <mxGeometry width="50" height="30" as="geometry" />
        </mxCell>
        <mxCell id="HGfq4PHyTtCPstL9mXCh-65" value="" style="rhombus;whiteSpace=wrap;html=1;fontFamily=Helvetica;fontSize=11;fontColor=default;labelBackgroundColor=default;" parent="Y1ywnI6Fe6qzkNMvWHq9-10" vertex="1">
          <mxGeometry x="7.5" y="36.5" width="35" height="35" as="geometry" />
        </mxCell>
        <mxCell id="Y1ywnI6Fe6qzkNMvWHq9-11" style="edgeStyle=orthogonalEdgeStyle;rounded=0;orthogonalLoop=1;jettySize=auto;html=1;entryX=0.5;entryY=0;entryDx=0;entryDy=0;shape=link;" edge="1" parent="1" source="HGfq4PHyTtCPstL9mXCh-52" target="HGfq4PHyTtCPstL9mXCh-26">
          <mxGeometry relative="1" as="geometry">
            <Array as="points">
              <mxPoint x="-160" y="495" />
            </Array>
          </mxGeometry>
        </mxCell>
        <mxCell id="Y1ywnI6Fe6qzkNMvWHq9-15" value="" style="group" vertex="1" connectable="0" parent="1">
          <mxGeometry x="455" y="471" width="50" height="40" as="geometry" />
        </mxCell>
        <mxCell id="K1kNOEO3Sa0EjUUVY54G-17" value="" style="triangle;whiteSpace=wrap;html=1;fontFamily=Helvetica;fontSize=11;fontColor=default;labelBackgroundColor=default;rotation=-90;fillColor=none;" parent="Y1ywnI6Fe6qzkNMvWHq9-15" vertex="1">
          <mxGeometry x="5" y="-5" width="40" height="50" as="geometry" />
        </mxCell>
        <mxCell id="K1kNOEO3Sa0EjUUVY54G-20" value="&lt;font style=&quot;font-size: 12px;&quot;&gt;X&lt;/font&gt;" style="text;html=1;align=center;verticalAlign=middle;resizable=0;points=[];autosize=1;strokeColor=none;fillColor=none;fontFamily=Helvetica;fontSize=11;fontColor=default;labelBackgroundColor=default;" parent="Y1ywnI6Fe6qzkNMvWHq9-15" vertex="1">
          <mxGeometry x="10" y="10" width="30" height="30" as="geometry" />
        </mxCell>
        <mxCell id="Y1ywnI6Fe6qzkNMvWHq9-81" style="edgeStyle=orthogonalEdgeStyle;rounded=0;orthogonalLoop=1;jettySize=auto;html=1;entryX=1;entryY=0.5;entryDx=0;entryDy=0;strokeColor=default;align=center;verticalAlign=middle;fontFamily=Helvetica;fontSize=11;fontColor=default;labelBackgroundColor=default;endArrow=none;endFill=0;shape=link;" edge="1" parent="1" source="Y1ywnI6Fe6qzkNMvWHq9-24" target="Y1ywnI6Fe6qzkNMvWHq9-59">
          <mxGeometry relative="1" as="geometry" />
        </mxCell>
        <mxCell id="Y1ywnI6Fe6qzkNMvWHq9-82" style="edgeStyle=orthogonalEdgeStyle;rounded=0;orthogonalLoop=1;jettySize=auto;html=1;entryX=1;entryY=0.5;entryDx=0;entryDy=0;strokeColor=default;align=center;verticalAlign=middle;fontFamily=Helvetica;fontSize=11;fontColor=default;labelBackgroundColor=default;endArrow=none;endFill=0;shape=link;" edge="1" parent="1" source="Y1ywnI6Fe6qzkNMvWHq9-24" target="Y1ywnI6Fe6qzkNMvWHq9-65">
          <mxGeometry relative="1" as="geometry" />
        </mxCell>
        <mxCell id="Y1ywnI6Fe6qzkNMvWHq9-24" value="Sintoma" style="whiteSpace=wrap;html=1;align=center;fillColor=none;" vertex="1" parent="1">
          <mxGeometry x="130" y="1075" width="140" height="60" as="geometry" />
        </mxCell>
        <mxCell id="Y1ywnI6Fe6qzkNMvWHq9-63" value="" style="group" vertex="1" connectable="0" parent="1">
          <mxGeometry x="325" y="1180" width="50" height="40" as="geometry" />
        </mxCell>
        <mxCell id="Y1ywnI6Fe6qzkNMvWHq9-59" value="" style="triangle;whiteSpace=wrap;html=1;fontFamily=Helvetica;fontSize=11;fontColor=default;labelBackgroundColor=default;rotation=-180;fillColor=none;direction=south;" vertex="1" parent="Y1ywnI6Fe6qzkNMvWHq9-63">
          <mxGeometry width="50" height="40" as="geometry" />
        </mxCell>
        <mxCell id="Y1ywnI6Fe6qzkNMvWHq9-62" value="X" style="text;html=1;align=center;verticalAlign=middle;resizable=0;points=[];autosize=1;strokeColor=none;fillColor=none;fontFamily=Helvetica;fontSize=11;fontColor=default;labelBackgroundColor=default;rounded=0;" vertex="1" parent="Y1ywnI6Fe6qzkNMvWHq9-63">
          <mxGeometry x="10" y="9" width="30" height="30" as="geometry" />
        </mxCell>
        <mxCell id="Y1ywnI6Fe6qzkNMvWHq9-64" value="" style="group" vertex="1" connectable="0" parent="1">
          <mxGeometry x="30" y="1170" width="50" height="40" as="geometry" />
        </mxCell>
        <mxCell id="Y1ywnI6Fe6qzkNMvWHq9-65" value="" style="triangle;whiteSpace=wrap;html=1;fontFamily=Helvetica;fontSize=11;fontColor=default;labelBackgroundColor=default;rotation=-180;fillColor=none;direction=south;" vertex="1" parent="Y1ywnI6Fe6qzkNMvWHq9-64">
          <mxGeometry width="50" height="40" as="geometry" />
        </mxCell>
        <mxCell id="Y1ywnI6Fe6qzkNMvWHq9-66" value="X" style="text;html=1;align=center;verticalAlign=middle;resizable=0;points=[];autosize=1;strokeColor=none;fillColor=none;fontFamily=Helvetica;fontSize=11;fontColor=default;labelBackgroundColor=default;rounded=0;" vertex="1" parent="Y1ywnI6Fe6qzkNMvWHq9-64">
          <mxGeometry x="10" y="9" width="30" height="30" as="geometry" />
        </mxCell>
        <mxCell id="Y1ywnI6Fe6qzkNMvWHq9-73" value="" style="whiteSpace=wrap;html=1;align=center;fillColor=none;" vertex="1" parent="1">
          <mxGeometry x="360" y="1275" width="130" height="50" as="geometry" />
        </mxCell>
        <mxCell id="Y1ywnI6Fe6qzkNMvWHq9-90" style="edgeStyle=orthogonalEdgeStyle;rounded=0;orthogonalLoop=1;jettySize=auto;html=1;entryX=0.5;entryY=0;entryDx=0;entryDy=0;strokeColor=default;align=center;verticalAlign=middle;fontFamily=Helvetica;fontSize=11;fontColor=default;labelBackgroundColor=default;endArrow=none;endFill=0;" edge="1" parent="1" source="Y1ywnI6Fe6qzkNMvWHq9-74" target="Y1ywnI6Fe6qzkNMvWHq9-87">
          <mxGeometry relative="1" as="geometry" />
        </mxCell>
        <mxCell id="Y1ywnI6Fe6qzkNMvWHq9-74" value="Quantitativo" style="whiteSpace=wrap;html=1;align=center;fillColor=none;" vertex="1" parent="1">
          <mxGeometry x="355" y="1270" width="140" height="60" as="geometry" />
        </mxCell>
        <mxCell id="Y1ywnI6Fe6qzkNMvWHq9-92" style="edgeStyle=orthogonalEdgeStyle;rounded=0;orthogonalLoop=1;jettySize=auto;html=1;entryX=0.5;entryY=0;entryDx=0;entryDy=0;strokeColor=default;align=center;verticalAlign=middle;fontFamily=Helvetica;fontSize=11;fontColor=default;labelBackgroundColor=default;endArrow=none;endFill=0;" edge="1" parent="1" source="Y1ywnI6Fe6qzkNMvWHq9-75" target="Y1ywnI6Fe6qzkNMvWHq9-91">
          <mxGeometry relative="1" as="geometry" />
        </mxCell>
        <mxCell id="Y1ywnI6Fe6qzkNMvWHq9-75" value="Qualitativo" style="whiteSpace=wrap;html=1;align=center;fillColor=none;" vertex="1" parent="1">
          <mxGeometry x="205" y="1270" width="140" height="60" as="geometry" />
        </mxCell>
        <mxCell id="Y1ywnI6Fe6qzkNMvWHq9-78" value="Descrito pelo Paciente" style="whiteSpace=wrap;html=1;align=center;fillColor=none;" vertex="1" parent="1">
          <mxGeometry x="55" y="1270" width="140" height="60" as="geometry" />
        </mxCell>
        <mxCell id="Y1ywnI6Fe6qzkNMvWHq9-79" value="Observado pelo Médico" style="whiteSpace=wrap;html=1;align=center;fillColor=none;" vertex="1" parent="1">
          <mxGeometry x="-95" y="1270" width="140" height="60" as="geometry" />
        </mxCell>
        <mxCell id="Y1ywnI6Fe6qzkNMvWHq9-83" style="edgeStyle=orthogonalEdgeStyle;rounded=1;orthogonalLoop=1;jettySize=auto;html=1;entryX=0.5;entryY=0;entryDx=0;entryDy=0;strokeColor=default;align=center;verticalAlign=middle;fontFamily=Helvetica;fontSize=11;fontColor=default;labelBackgroundColor=default;endArrow=none;endFill=0;curved=0;" edge="1" parent="1" source="Y1ywnI6Fe6qzkNMvWHq9-66" target="Y1ywnI6Fe6qzkNMvWHq9-78">
          <mxGeometry relative="1" as="geometry" />
        </mxCell>
        <mxCell id="Y1ywnI6Fe6qzkNMvWHq9-84" style="edgeStyle=orthogonalEdgeStyle;rounded=1;orthogonalLoop=1;jettySize=auto;html=1;entryX=0.5;entryY=0;entryDx=0;entryDy=0;strokeColor=default;align=center;verticalAlign=middle;fontFamily=Helvetica;fontSize=11;fontColor=default;labelBackgroundColor=default;endArrow=none;endFill=0;curved=0;" edge="1" parent="1" source="Y1ywnI6Fe6qzkNMvWHq9-66" target="Y1ywnI6Fe6qzkNMvWHq9-79">
          <mxGeometry relative="1" as="geometry" />
        </mxCell>
        <mxCell id="Y1ywnI6Fe6qzkNMvWHq9-85" style="edgeStyle=orthogonalEdgeStyle;rounded=1;orthogonalLoop=1;jettySize=auto;html=1;entryX=0.5;entryY=0;entryDx=0;entryDy=0;strokeColor=default;align=center;verticalAlign=middle;fontFamily=Helvetica;fontSize=11;fontColor=default;labelBackgroundColor=default;endArrow=none;endFill=0;curved=0;" edge="1" parent="1" source="Y1ywnI6Fe6qzkNMvWHq9-62" target="Y1ywnI6Fe6qzkNMvWHq9-75">
          <mxGeometry relative="1" as="geometry" />
        </mxCell>
        <mxCell id="Y1ywnI6Fe6qzkNMvWHq9-87" value="&lt;span style=&quot;border-bottom: 1px dotted&quot;&gt;valor&lt;/span&gt;" style="ellipse;whiteSpace=wrap;html=1;align=center;fillColor=none;" vertex="1" parent="1">
          <mxGeometry x="385" y="1350" width="80" height="40" as="geometry" />
        </mxCell>
        <mxCell id="Y1ywnI6Fe6qzkNMvWHq9-88" style="edgeStyle=orthogonalEdgeStyle;rounded=1;orthogonalLoop=1;jettySize=auto;html=1;entryX=0.5;entryY=0;entryDx=0;entryDy=0;strokeColor=default;align=center;verticalAlign=middle;fontFamily=Helvetica;fontSize=11;fontColor=default;labelBackgroundColor=default;endArrow=none;endFill=0;curved=0;" edge="1" parent="1" source="Y1ywnI6Fe6qzkNMvWHq9-62" target="Y1ywnI6Fe6qzkNMvWHq9-74">
          <mxGeometry relative="1" as="geometry" />
        </mxCell>
        <mxCell id="Y1ywnI6Fe6qzkNMvWHq9-91" value="&lt;u&gt;nome&lt;/u&gt;" style="ellipse;whiteSpace=wrap;html=1;align=center;fillColor=none;" vertex="1" parent="1">
          <mxGeometry x="235" y="1350" width="80" height="40" as="geometry" />
        </mxCell>
        <mxCell id="Y1ywnI6Fe6qzkNMvWHq9-104" style="edgeStyle=orthogonalEdgeStyle;rounded=0;orthogonalLoop=1;jettySize=auto;html=1;entryX=0;entryY=0.5;entryDx=0;entryDy=0;strokeColor=default;align=center;verticalAlign=middle;fontFamily=Helvetica;fontSize=11;fontColor=default;labelBackgroundColor=default;endArrow=none;endFill=0;" edge="1" parent="1" source="Y1ywnI6Fe6qzkNMvWHq9-95" target="Y1ywnI6Fe6qzkNMvWHq9-98">
          <mxGeometry relative="1" as="geometry" />
        </mxCell>
        <mxCell id="Y1ywnI6Fe6qzkNMvWHq9-95" value=" " style="rhombus;whiteSpace=wrap;html=1;fontFamily=Helvetica;fontSize=11;fontColor=default;labelBackgroundColor=default;" vertex="1" parent="1">
          <mxGeometry x="440" y="1105" width="50" height="50" as="geometry" />
        </mxCell>
        <mxCell id="Y1ywnI6Fe6qzkNMvWHq9-97" value="&lt;font style=&quot;font-size: 12px;&quot;&gt;para &amp;gt;&amp;nbsp;&lt;/font&gt;" style="text;html=1;align=center;verticalAlign=middle;resizable=0;points=[];autosize=1;strokeColor=none;fillColor=none;fontFamily=Helvetica;fontSize=11;fontColor=default;labelBackgroundColor=default;" vertex="1" parent="1">
          <mxGeometry x="435" y="1070" width="60" height="30" as="geometry" />
        </mxCell>
        <mxCell id="Y1ywnI6Fe6qzkNMvWHq9-98" value="Parâmetro" style="whiteSpace=wrap;html=1;align=center;fillColor=none;" vertex="1" parent="1">
          <mxGeometry x="520" y="1100" width="140" height="60" as="geometry" />
        </mxCell>
        <mxCell id="Y1ywnI6Fe6qzkNMvWHq9-99" style="edgeStyle=none;rounded=0;orthogonalLoop=1;jettySize=auto;html=1;exitX=0.5;exitY=1;exitDx=0;exitDy=0;strokeColor=default;align=center;verticalAlign=middle;fontFamily=Helvetica;fontSize=11;fontColor=default;labelBackgroundColor=default;autosize=1;resizable=0;endArrow=none;endFill=0;" edge="1" source="Y1ywnI6Fe6qzkNMvWHq9-100" target="Y1ywnI6Fe6qzkNMvWHq9-98" parent="1">
          <mxGeometry relative="1" as="geometry">
            <mxPoint x="670" y="1150" as="sourcePoint" />
          </mxGeometry>
        </mxCell>
        <mxCell id="Y1ywnI6Fe6qzkNMvWHq9-100" value="&lt;u&gt;nome&lt;/u&gt;" style="ellipse;whiteSpace=wrap;html=1;align=center;fillColor=none;" vertex="1" parent="1">
          <mxGeometry x="550" y="1020" width="80" height="40" as="geometry" />
        </mxCell>
        <mxCell id="Y1ywnI6Fe6qzkNMvWHq9-101" value="" style="rhombus;whiteSpace=wrap;html=1;fontFamily=Helvetica;fontSize=11;fontColor=default;labelBackgroundColor=default;" vertex="1" parent="1">
          <mxGeometry x="447.5" y="1112.5" width="35" height="35" as="geometry" />
        </mxCell>
        <mxCell id="Y1ywnI6Fe6qzkNMvWHq9-110" style="edgeStyle=none;rounded=0;orthogonalLoop=1;jettySize=auto;html=1;strokeColor=default;align=center;verticalAlign=middle;fontFamily=Helvetica;fontSize=11;fontColor=default;labelBackgroundColor=default;autosize=1;resizable=0;endArrow=none;endFill=0;exitX=0.75;exitY=0;exitDx=0;exitDy=0;entryX=0.12;entryY=0.182;entryDx=0;entryDy=0;entryPerimeter=0;" edge="1" parent="1">
          <mxGeometry relative="1" as="geometry">
            <mxPoint x="462" y="1270" as="sourcePoint" />
            <mxPoint x="462.2299999999999" y="1163.8000000000002" as="targetPoint" />
            <Array as="points" />
          </mxGeometry>
        </mxCell>
        <mxCell id="Y1ywnI6Fe6qzkNMvWHq9-111" value="&lt;font style=&quot;font-size: 12px;&quot;&gt;RI-8&lt;/font&gt;" style="text;html=1;align=center;verticalAlign=middle;resizable=0;points=[];autosize=1;strokeColor=none;fillColor=none;fontFamily=Helvetica;fontSize=11;fontColor=default;labelBackgroundColor=default;" vertex="1" parent="1">
          <mxGeometry x="300" y="1380" width="50" height="30" as="geometry" />
        </mxCell>
      </root>
    </mxGraphModel>
  </diagram>
</mxfile>
